<svg width="18" height="18" viewBox="0 0 18 18" fill="none" xmlns="http://www.w3.org/2000/svg">
<path fill-rule="evenodd" clip-rule="evenodd" d="M0 7.60358C0 3.41095 3.41095 0 7.60358 0C11.7962 0 15.2072 3.41095 15.2072 7.60358C15.2072 9.46102 14.5377 11.165 13.4274 12.487L17.8051 16.8647C18.0649 17.1243 18.0649 17.5455 17.8051 17.8051C17.6752 17.935 17.5052 17.9999 17.3349 17.9999C17.1647 17.9999 16.9946 17.935 16.8647 17.8051L12.487 13.4274C11.165 14.5377 9.46102 15.2072 7.60358 15.2072C3.41095 15.2072 0 11.7962 0 7.60358ZM12.1055 11.9686C12.0799 11.9877 12.0554 12.0089 12.0321 12.0321C12.0088 12.0554 11.9876 12.08 11.9685 12.1056C10.8384 13.2016 9.29843 13.8771 7.60358 13.8771C4.14429 13.8771 1.33009 11.0629 1.33009 7.60358C1.33009 4.14429 4.14429 1.33009 7.60358 1.33009C11.0627 1.33009 13.8771 4.14429 13.8771 7.60358C13.8771 9.29849 13.2015 10.8385 12.1055 11.9686Z" fill="black" fill-opacity="0.5"/>
</svg>
